<svg version="1.1" xmlns="http://www.w3.org/2000/svg" xmlns:xlink="http://www.w3.org/1999/xlink" width="109.48265" height="45.86624" viewBox="0,0,109.48265,45.86624"><defs><linearGradient x1="194.05689" y1="171.01993" x2="235.54127" y2="171.01993" gradientUnits="userSpaceOnUse" id="color-1"><stop offset="0" stop-color="#0cb300"/><stop offset="1" stop-color="#00c799"/></linearGradient><linearGradient x1="244.45873" y1="171.17048" x2="285.9431" y2="171.17048" gradientUnits="userSpaceOnUse" id="color-2"><stop offset="0" stop-color="#00c194"/><stop offset="1" stop-color="#00becc"/></linearGradient><radialGradient cx="198.89945" cy="184.67904" r="15.81956" gradientUnits="userSpaceOnUse" id="color-3"><stop offset="0" stop-color="#000000"/><stop offset="1" stop-color="#000000" stop-opacity="0"/></radialGradient><linearGradient x1="194.27424" y1="188.82952" x2="235.75861" y2="188.82952" gradientUnits="userSpaceOnUse" id="color-4"><stop offset="0" stop-color="#10ff00"/><stop offset="1" stop-color="#00ffc4"/></linearGradient><radialGradient cx="277.47878" cy="186.36797" r="15.81955" gradientUnits="userSpaceOnUse" id="color-5"><stop offset="0" stop-color="#000000"/><stop offset="1" stop-color="#000000" stop-opacity="0"/></radialGradient><linearGradient x1="244.24138" y1="188.98007" x2="285.72576" y2="188.98007" gradientUnits="userSpaceOnUse" id="color-6"><stop offset="0" stop-color="#00ffc3"/><stop offset="1" stop-color="#00eeff"/></linearGradient></defs><g transform="translate(-183.44779,-157.06688)"><g data-paper-data="{&quot;isPaintingLayer&quot;:true}" fill-rule="nonzero" stroke="none" stroke-linecap="butt" stroke-linejoin="miter" stroke-miterlimit="10" stroke-dasharray="" stroke-dashoffset="0" style="mix-blend-mode: normal"><path d="M235.54127,157.06688v12.70313c0,0 -37.24315,13.66137 -41.10792,15.20297l-0.37645,-0.15611v-10.54686z" data-paper-data="{&quot;index&quot;:null}" fill="url(#color-1)" stroke-width="1"/><path d="M285.9431,174.42056v10.54686l-0.37645,0.15611c-3.86478,-1.5416 -41.10792,-15.20297 -41.10792,-15.20297v-12.70312z" data-paper-data="{&quot;index&quot;:null}" fill="url(#color-2)" stroke-width="1"/><path d="M214.35111,184.67904c0,8.7369 -6.91794,15.81956 -15.45166,15.81956c-8.53372,0 -15.45166,-7.08266 -15.45166,-15.81956c0,-8.7369 6.91794,-15.81956 15.45166,-15.81956c8.53372,0 15.45166,7.08266 15.45166,15.81956z" fill="url(#color-3)" stroke-width="0"/><path d="M194.27424,185.57944v-10.54686l0.37645,-0.15611c3.86478,1.5416 41.10792,15.20297 41.10792,15.20297v12.70313z" data-paper-data="{&quot;index&quot;:null}" fill="url(#color-4)" stroke-width="1"/><path d="M292.93044,186.36797c0,8.7369 -6.91795,15.81956 -15.45166,15.81956c-8.53372,0 -15.45166,-7.08266 -15.45166,-15.81956c0,-8.7369 6.91794,-15.81955 15.45166,-15.81955c8.53371,0 15.45166,7.08265 15.45166,15.81955z" fill="url(#color-5)" stroke-width="0"/><path d="M244.24138,202.93312v-12.70312c0,0 37.24315,-13.66137 41.10792,-15.20297l0.37645,0.15611v10.54686z" data-paper-data="{&quot;index&quot;:null}" fill="url(#color-6)" stroke-width="1"/></g></g></svg>