<svg version="1.1" xmlns="http://www.w3.org/2000/svg" xmlns:xlink="http://www.w3.org/1999/xlink" width="111.35107" height="78.97345" viewBox="0,0,111.35107,78.97345"><defs><linearGradient x1="186.79379" y1="180.00003" x2="293.20614" y2="180.00003" gradientUnits="userSpaceOnUse" id="color-1"><stop offset="0" stop-color="#ff0000"/><stop offset="1" stop-color="#ef00ff"/></linearGradient><linearGradient x1="201.79035" y1="192.33684" x2="223.79649" y2="192.33684" gradientUnits="userSpaceOnUse" id="color-2"><stop offset="0" stop-color="#ff0000"/><stop offset="1" stop-color="#ef00ff"/></linearGradient><linearGradient x1="224.41816" y1="192.33134" x2="242.96935" y2="192.33134" gradientUnits="userSpaceOnUse" id="color-3"><stop offset="0" stop-color="#ff0000"/><stop offset="1" stop-color="#ef00ff"/></linearGradient><linearGradient x1="245.16447" y1="195.66527" x2="261.66907" y2="195.66527" gradientUnits="userSpaceOnUse" id="color-4"><stop offset="0" stop-color="#ff0000"/><stop offset="1" stop-color="#ef00ff"/></linearGradient><linearGradient x1="264.98649" y1="192.83748" x2="275.64846" y2="192.83748" gradientUnits="userSpaceOnUse" id="color-5"><stop offset="0" stop-color="#ff0000"/><stop offset="1" stop-color="#ef00ff"/></linearGradient><linearGradient x1="194.23051" y1="165.43151" x2="212.83077" y2="165.43151" gradientUnits="userSpaceOnUse" id="color-6"><stop offset="0" stop-color="#ff0000"/><stop offset="1" stop-color="#ef00ff"/></linearGradient><linearGradient x1="247.50033" y1="168.20507" x2="261.23084" y2="168.20507" gradientUnits="userSpaceOnUse" id="color-7"><stop offset="0" stop-color="#ff0000"/><stop offset="1" stop-color="#ef00ff"/></linearGradient><linearGradient x1="272.8789" y1="168.20507" x2="286.83825" y2="168.20507" gradientUnits="userSpaceOnUse" id="color-8"><stop offset="0" stop-color="#ff0000"/><stop offset="1" stop-color="#ef00ff"/></linearGradient><linearGradient x1="232.7034" y1="168.20507" x2="247.9809" y2="168.20507" gradientUnits="userSpaceOnUse" id="color-9"><stop offset="0" stop-color="#ff0000"/><stop offset="1" stop-color="#ef00ff"/></linearGradient><linearGradient x1="263.99067" y1="165.85257" x2="272.86059" y2="165.85257" gradientUnits="userSpaceOnUse" id="color-10"><stop offset="0" stop-color="#ff0000"/><stop offset="1" stop-color="#ef00ff"/></linearGradient><linearGradient x1="212.74839" y1="168.03115" x2="225.17909" y2="168.03115" gradientUnits="userSpaceOnUse" id="color-11"><stop offset="0" stop-color="#ff0000"/><stop offset="1" stop-color="#ef00ff"/></linearGradient><linearGradient x1="223.9113" y1="168.20507" x2="230.90471" y2="168.20507" gradientUnits="userSpaceOnUse" id="color-12"><stop offset="0" stop-color="#ff0000"/><stop offset="1" stop-color="#ef00ff"/></linearGradient><linearGradient x1="227.37139" y1="157.152" x2="232.05807" y2="157.152" gradientUnits="userSpaceOnUse" id="color-13"><stop offset="0" stop-color="#ff0000"/><stop offset="1" stop-color="#ef00ff"/></linearGradient></defs><g transform="translate(-184.3551,-140.49907)"><g data-paper-data="{&quot;isPaintingLayer&quot;:true}" fill-rule="nonzero" stroke-linecap="butt" stroke-linejoin="miter" stroke-miterlimit="10" stroke-dasharray="" stroke-dashoffset="0" style="mix-blend-mode: normal"><path d="M278.11964,216.96696c-20.86926,-0.04633 -60.95547,0.18815 -74.09852,-0.16465c-11.58732,-0.31097 -16.90031,-6.70481 -17.16602,-19.98421c-0.17109,-8.55068 0.06713,-27.68425 0.09863,-40.68143c0.01848,-7.64388 6.52442,-13.15125 12.69702,-13.13758c12.78524,0.02846 60.42221,0.13433 82.37464,0.18309c6.8572,0.01526 11.19359,6.08932 11.18075,11.40629c-0.02006,8.28155 -0.08033,33.15746 -0.1185,48.88902c-0.0192,7.92022 -6.04333,13.50921 -14.968,13.48937z" fill="#000000" stroke="url(#color-1)" stroke-width="5"/><g fill="none" stroke-width="1"><path d="M217.50273,195.71478l5.0174,0.75921c-0.97561,2.71409 -2.44268,4.79001 -4.40122,6.22774c-1.95855,1.43773 -4.25452,2.1566 -6.88792,2.1566c-2.95615,0 -5.27047,-0.89125 -6.94294,-2.67375c-1.66514,-1.7825 -2.4977,-4.36821 -2.4977,-7.75716c0,-2.75077 0.55749,-5.2668 1.67247,-7.5481c1.12232,-2.28863 2.67375,-4.03812 4.6543,-5.24846c1.98055,-1.21034 4.13715,-1.81551 6.4698,-1.81551c2.61873,0 4.73499,0.7042 6.34877,2.11259c1.62112,1.40106 2.57472,3.31193 2.8608,5.7326l-4.77534,0.46213c-0.26407,-1.40839 -0.77388,-2.42801 -1.52942,-3.05885c-0.74821,-0.63818 -1.74949,-0.95727 -3.00384,-0.95727c-1.37905,0 -2.66641,0.41812 -3.86208,1.25435c-1.18833,0.83623 -2.14193,2.1456 -2.8608,3.9281c-0.71153,1.77516 -1.0673,3.54665 -1.0673,5.31448c0,1.93654 0.46213,3.43296 1.38639,4.48925c0.93159,1.05629 2.09058,1.58444 3.47697,1.58444c1.29103,0 2.47202,-0.41812 3.54299,-1.25435c1.07096,-0.83623 1.87052,-2.07224 2.39867,-3.70803z" stroke="url(#color-2)"/><path d="M229.16051,204.42921h-4.74234l5.07243,-24.19574h4.73132l-1.81551,8.6154c1.07096,-0.83623 2.06857,-1.43774 2.99283,-1.80451c0.92426,-0.37411 1.91454,-0.56115 2.97083,-0.56115c1.41573,0 2.53438,0.4071 3.35594,1.22133c0.82889,0.81423 1.24335,1.88153 1.24335,3.20189c0,0.70419 -0.15405,1.7935 -0.46213,3.26792l-2.14559,10.25486h-4.73132l2.18962,-10.45292c0.23473,-1.12964 0.3521,-1.85585 0.3521,-2.17861c0,-0.57949 -0.18339,-1.04529 -0.55016,-1.39738c-0.35943,-0.3521 -0.85456,-0.52816 -1.48541,-0.52816c-0.79222,0 -1.55143,0.27508 -2.27764,0.82524c-0.94626,0.7262 -1.66513,1.61745 -2.1566,2.67375c-0.27874,0.57949 -0.64185,1.94754 -1.08931,4.10414z" stroke="url(#color-3)"/><path d="M251.68929,191.86371l-4.62129,-0.39611c0.52815,-1.56244 1.44873,-2.78378 2.76177,-3.66402c1.31304,-0.88025 3.05518,-1.32036 5.22645,-1.32036c2.25196,0 3.9171,0.4548 4.9954,1.36438c1.0783,0.90958 1.61745,2.01723 1.61745,3.32292c0,0.52815 -0.04768,1.0893 -0.14304,1.68347c-0.08803,0.59417 -0.41445,2.15661 -0.97927,4.68731c-0.46213,2.09058 -0.69319,3.55399 -0.69319,4.39022c0,0.74821 0.13204,1.58077 0.39611,2.4977h-4.59928c-0.19072,-0.63818 -0.30809,-1.29836 -0.3521,-1.98056c-0.68952,0.77022 -1.48542,1.36437 -2.38767,1.7825c-0.90225,0.41078 -1.81183,0.61617 -2.72876,0.61617c-1.4524,0 -2.65174,-0.47681 -3.598,-1.4304c-0.94626,-0.95359 -1.4194,-2.17861 -1.4194,-3.67502c0,-1.67246 0.52082,-3.00751 1.56244,-4.00512c1.04162,-1.00495 2.89747,-1.61378 5.56755,-1.8265c2.2593,-0.18339 3.76671,-0.40712 4.52226,-0.67119c0.19806,-0.66018 0.29709,-1.18834 0.29709,-1.58445c0,-0.50614 -0.20538,-0.92792 -0.61617,-1.26535c-0.40345,-0.34476 -1.00495,-0.51715 -1.80451,-0.51715c-0.8509,0 -1.52209,0.17239 -2.01356,0.51715c-0.48413,0.34476 -0.81423,0.83623 -0.99028,1.47441zM256.18954,196.25393c-0.28608,0.08069 -0.66385,0.15404 -1.13331,0.22006c-2.37666,0.28608 -3.92809,0.70419 -4.6543,1.25435c-0.52081,0.39611 -0.78122,0.92792 -0.78122,1.59544c0,0.55016 0.19806,1.01595 0.59417,1.39739c0.39611,0.38144 0.92059,0.57216 1.57344,0.57216c0.71153,0 1.38271,-0.17238 2.01356,-0.51714c0.63818,-0.3521 1.11131,-0.79956 1.4194,-1.34238c0.31542,-0.54282 0.59416,-1.39372 0.83623,-2.55271z" stroke="url(#color-4)"/><path d="M264.98649,190.4113l0.72621,-3.50998h2.31064l0.58316,-2.80577l5.42451,-3.26792l-1.26536,6.07369h2.8828l-0.7262,3.50998h-2.90481l-1.52943,7.35005c-0.27874,1.3277 -0.41811,2.08691 -0.41811,2.27764c0,0.35943 0.1137,0.64184 0.34109,0.84723c0.23473,0.20539 0.65652,0.30809 1.26536,0.30809c0.20539,0 0.7262,-0.04035 1.56243,-0.12104l-0.7372,3.52098c-0.81423,0.16871 -1.65046,0.25307 -2.5087,0.25307c-1.67246,0 -2.89013,-0.32276 -3.65301,-0.96827c-0.75555,-0.64551 -1.13332,-1.54043 -1.13332,-2.68474c0,-0.54282 0.20173,-1.78617 0.60518,-3.73004l1.47441,-7.05297z" stroke="url(#color-5)"/></g><g fill="none" stroke-width="1"><path d="M198.37712,175.49597h-4.14661l4.21069,-20.12893h8.18339c1.45849,0 2.6088,0.17086 3.45094,0.5126c0.84824,0.34174 1.51951,0.90927 2.01381,1.70258c0.4943,0.79331 0.74145,1.7392 0.74145,2.83764c0,1.013 -0.19833,2.0016 -0.59499,2.96579c-0.39055,0.95808 -0.87265,1.727 -1.44628,2.30673c-0.56753,0.57363 -1.18083,1.00996 -1.83989,1.30898c-0.65906,0.29902 -1.54697,0.5248 -2.66372,0.67737c-0.65296,0.09154 -1.8704,0.13731 -3.65231,0.13731h-2.65457zM200.66553,164.4841h1.28152c2.18468,0 3.64316,-0.1373 4.37546,-0.41192c0.73229,-0.27461 1.30897,-0.71398 1.73004,-1.31813c0.42107,-0.60414 0.63161,-1.26931 0.63161,-1.9955c0,-0.48209 -0.10679,-0.87875 -0.32038,-1.18998c-0.21358,-0.31123 -0.51566,-0.53702 -0.90621,-0.67737c-0.39055,-0.14646 -1.25711,-0.21969 -2.59965,-0.21969h-2.96579z" stroke="url(#color-6)"/><path d="M252.92846,165.04248l-3.84455,-0.32953c0.43938,-1.29982 1.20523,-2.31588 2.29758,-3.04818c1.09234,-0.73229 2.54167,-1.09844 4.34799,-1.09844c1.87345,0 3.25871,0.37835 4.15577,1.13505c0.89706,0.7567 1.34559,1.67818 1.34559,2.76441c0,0.43938 -0.03967,0.90621 -0.119,1.40051c-0.07323,0.4943 -0.34478,1.79412 -0.81467,3.89947c-0.38446,1.7392 -0.57669,2.95664 -0.57669,3.65231c0,0.62245 0.10984,1.31508 0.32953,2.07789h-3.82623c-0.15867,-0.53092 -0.2563,-1.08013 -0.29292,-1.64766c-0.57363,0.64076 -1.23575,1.13505 -1.98635,1.48289c-0.7506,0.34174 -1.5073,0.51261 -2.27011,0.51261c-1.20828,0 -2.20604,-0.39667 -2.99325,-1.18998c-0.78722,-0.79331 -1.18082,-1.81243 -1.18082,-3.05733c0,-1.39136 0.43328,-2.50201 1.29982,-3.33194c0.86654,-0.83604 2.41047,-1.34253 4.63176,-1.5195c1.87955,-0.15256 3.13361,-0.33869 3.76217,-0.55838c0.16477,-0.54922 0.24715,-0.9886 0.24715,-1.31813c0,-0.42107 -0.17087,-0.77196 -0.51261,-1.05267c-0.33564,-0.28681 -0.83604,-0.43023 -1.50121,-0.43023c-0.70788,0 -1.26625,0.14341 -1.67512,0.43023c-0.40276,0.28681 -0.67737,0.69568 -0.82383,1.22659zM256.67231,168.69479c-0.238,0.06713 -0.55228,0.12815 -0.94283,0.18307c-1.97719,0.238 -3.26786,0.58583 -3.872,1.04352c-0.43327,0.32953 -0.64991,0.77196 -0.64991,1.32728c0,0.45769 0.16476,0.84519 0.49429,1.16252c0.32953,0.31732 0.76586,0.47599 1.30898,0.47599c0.59194,0 1.1503,-0.14341 1.67512,-0.43022c0.53092,-0.29292 0.92452,-0.66517 1.18083,-1.11675c0.26241,-0.45158 0.4943,-1.15946 0.69568,-2.12365z" stroke="url(#color-7)"/><path d="M286.56364,169.42708h-9.88597c-0.0061,0.15256 -0.00915,0.27156 -0.00915,0.35699c0,0.97029 0.27461,1.75446 0.82383,2.3525c0.55532,0.59194 1.23269,0.88791 2.03212,0.88791c1.30593,0 2.32503,-0.67737 3.05733,-2.03211l3.53332,0.58583c-0.03195,0.06587 -0.06438,0.13098 -0.09731,0.19533l-0.48694,-0.20869c-0.19895,-0.09066 -0.42005,-0.14118 -0.65295,-0.14118c-0.87055,0 -1.57626,0.70572 -1.57626,1.57626c0,0.3483 0.11297,0.67022 0.30427,0.93111l0.32344,0.45282c-0.18312,0.1431 -0.37295,0.27581 -0.5695,0.39813c-1.14726,0.70788 -2.43488,1.06182 -3.86285,1.06182c-1.95889,0 -3.55163,-0.61939 -4.77822,-1.85819c-1.22659,-1.2449 -1.83989,-2.88951 -1.83989,-4.93384c0,-1.9955 0.55227,-3.77132 1.65681,-5.32744c1.51341,-2.10534 3.67062,-3.15801 6.47165,-3.15801c1.78192,0 3.19769,0.55227 4.24731,1.65681c1.05573,1.10454 1.58359,2.64847 1.58359,4.63176c0,0.95198 -0.09154,1.80937 -0.27461,2.57218zM283.24086,167.01967c0.01221,-0.17087 0.01831,-0.30207 0.01831,-0.39361c0,-1.08013 -0.2441,-1.88872 -0.73229,-2.42573c-0.48209,-0.54312 -1.13201,-0.81468 -1.94974,-0.81468c-0.81163,0 -1.54087,0.30818 -2.18772,0.92452c-0.64686,0.61024 -1.08319,1.51341 -1.30898,2.70949z" stroke="url(#color-8)"/><path d="M239.01944,175.49597h-3.39601l-2.92002,-14.58181h3.872l1.02522,6.35265c0.28681,1.72089 0.45768,2.86511 0.5126,3.43264c0.07323,-0.15256 0.39055,-0.7445 0.95198,-1.77581c0.56143,-1.03131 0.90621,-1.65072 1.03437,-1.8582l3.62486,-6.15127h4.25646z" stroke="url(#color-9)"/><path d="M263.99067,163.83418l0.60414,-2.92002h1.92227l0.48515,-2.33418l4.51276,-2.71865l-1.05268,5.05283h2.39826l-0.60414,2.92002h-2.41657l-1.27236,6.11466c-0.23189,1.10454 -0.34784,1.73615 -0.34784,1.89481c0,0.29902 0.09459,0.53396 0.28376,0.70483c0.19528,0.17087 0.54618,0.25631 1.05268,0.25631c0.17087,0 0.60415,-0.03357 1.29982,-0.10069l-0.6133,2.92918c-0.67737,0.14035 -1.37304,0.21053 -2.08704,0.21053c-1.39136,0 -2.40437,-0.26851 -3.03902,-0.80552c-0.62855,-0.53701 -0.94283,-1.28151 -0.94283,-2.23349c0,-0.45158 0.16782,-1.48595 0.50346,-3.1031l1.22659,-5.86751z" stroke="url(#color-10)"/><path d="M215.79657,160.91416h3.67978l-0.58584,2.82849c1.37305,-2.11755 2.85899,-3.17632 4.45784,-3.17632c0.56753,0 1.17778,0.14341 1.83074,0.43022l-1.51036,3.2221c-0.36004,-0.12815 -0.74145,-0.19223 -1.14421,-0.19223c-0.67737,0 -1.36695,0.2563 -2.06873,0.76891c-0.69568,0.5126 -1.24185,1.19914 -1.63851,2.05958c-0.39055,0.85434 -0.77807,2.20909 -1.16252,4.06423l-0.96113,4.57684h-3.94524z" stroke="url(#color-11)"/><path d="M226.95948,160.91416h3.94523l-3.04817,14.58181h-3.94524z" stroke="url(#color-12)"/><path d="M228.11284,155.36704h3.94523l-0.74145,3.56993h-3.94523z" stroke="url(#color-13)"/></g></g></g></svg>